<svg t="1586765131182" class="icon" viewBox="0 0 1152 1024" version="1.1" xmlns="http://www.w3.org/2000/svg" p-id="13523" width="40" height="40"><path d="M59.733333 904.533333c-17.066667 0-29.866667-4.266667-42.666666-17.066666-12.8-12.8-17.066667-25.6-17.066667-42.666667V59.733333C0 25.6 25.6 0 59.733333 0h1032.533334c17.066667 0 29.866667 4.266667 42.666666 17.066667 12.8 12.8 17.066667 25.6 17.066667 42.666666v785.066667c0 17.066667-4.266667 29.866667-17.066667 42.666667-12.8 12.8-25.6 17.066667-42.666666 17.066666H59.733333z m0-59.733333h1032.533334V59.733333H59.733333v785.066667z m657.066667-221.866667l170.666667-170.666666-170.666667-170.666667 42.666667-42.666667 213.333333 213.333334-213.333333 213.333333-42.666667-42.666667z m-537.6-170.666666l213.333333-213.333334 42.666667 42.666667-170.666667 170.666667 170.666667 170.666666-42.666667 42.666667-213.333333-213.333333z m366.933333 149.333333v-298.666667h59.733334v302.933334h-59.733334z m0 0M273.066667 964.266667h605.866666c21.333333 0 29.866667 8.533333 29.866667 29.866666 0 21.333333-8.533333 29.866667-29.866667 29.866667H273.066667c-21.333333 0-29.866667-8.533333-29.866667-29.866667 0-21.333333 8.533333-29.866667 29.866667-29.866666z m0 0" p-id="13524" fill="#333333"></path></svg>
