<svg t="1586765234582" class="icon" viewBox="0 0 1027 1024" version="1.1" xmlns="http://www.w3.org/2000/svg" p-id="15365" width="40" height="40"><path d="M917.68306 266.192037h-207.837627l236.615145-223.825136c9.592506-9.592506 9.592506-25.580016 0-35.172522-9.592506-9.592506-25.580016-9.592506-35.172522 0L639.50039 266.192037h-243.010148L121.505074 7.194379C111.912568-2.398126 95.925059-2.398126 86.332553 7.194379c-9.592506 9.592506-9.592506 25.580016 0 35.172522l236.615144 223.825136H105.517564C47.962529 266.192037 0 310.957065 0 368.5121v556.36534C0 979.234973 47.962529 1024 105.517564 1024h815.362998c57.555035 0 105.517564-44.765027 105.517564-99.12256V368.5121a108.715066 108.715066 0 0 0-108.715066-102.320063z m54.357533 658.685403c0 28.777518-22.382514 51.160031-54.357533 51.160031H105.517564c-28.777518 0-54.357533-22.382514-54.357533-51.160031V368.5121c0-28.777518 22.382514-51.160031 54.357533-51.160031h815.362998c28.777518 0 54.357533 22.382514 54.357533 51.160031v556.36534z m0 0" fill="#333333" p-id="15366"></path><path d="M703.450429 627.509758l-313.355191-172.665105c-6.395004-3.197502-19.185012-3.197502-25.580016 0-6.395004 3.197502-12.790008 12.790008-12.790007 22.382513v345.330211c0 9.592506 6.395004 15.98751 12.790007 22.382514 3.197502 3.197502 9.592506 3.197502 12.790008 3.197502 3.197502 0 9.592506 0 12.790008-3.197502L703.450429 672.274785c6.395004-3.197502 12.790008-12.790008 12.790008-22.382513 0-9.592506-6.395004-19.185012-12.790008-22.382514z m-300.565183 150.282592v-262.19516l233.417642 131.09758-233.417642 131.09758z m0 0" fill="#333333" p-id="15367"></path></svg>
