<svg t="1586762225568" class="icon" viewBox="0 0 1024 1024" version="1.1" xmlns="http://www.w3.org/2000/svg" p-id="12570" width="40" height="40"><path d="M510.207 286.36c61.62 0 111.574-49.953 111.574-111.574 0-61.62-49.953-111.573-111.574-111.573-61.62 0-111.573 49.953-111.573 111.573 0 61.62 49.954 111.574 111.573 111.574z m0-167.219c30.683 0 55.646 24.963 55.646 55.646s-24.962 55.647-55.646 55.647c-30.683 0-55.645-24.963-55.645-55.647s24.962-55.646 55.645-55.646z m-335.51 463.422c-61.62 0-111.573 49.953-111.573 111.574 0 61.62 49.953 111.574 111.573 111.574s111.574-49.954 111.574-111.574-49.953-111.574-111.574-111.574z m0 167.219c-30.682 0-55.646-24.962-55.646-55.646 0-30.683 24.963-55.646 55.646-55.646s55.646 24.962 55.646 55.646-24.963 55.646-55.646 55.646zM845.95 582.563c-61.62 0-111.573 49.953-111.573 111.574 0 61.62 49.953 111.574 111.573 111.574s111.574-49.954 111.574-111.574-49.953-111.574-111.574-111.574z m0 167.219c-30.683 0-55.646-24.962-55.646-55.646 0-30.683 24.963-55.646 55.646-55.646s55.647 24.962 55.647 55.646-24.964 55.646-55.647 55.646zM509.425 879.616c-79.714 0-157.406-27.896-218.755-78.526l-35.611 43.12c71.358 58.904 161.694 91.333 254.365 91.333 93.463 0 184.4-32.934 256.044-92.726l-35.829-42.928c-61.62 51.408-139.819 79.727-220.214 79.727z m343.95-343.95h55.928c0-154.827-90.705-297.158-231.098-362.603l-23.622 50.685c120.758 56.31 198.793 178.734 198.793 311.917zM364.268 223.747l-23.622-50.685C200.265 238.508 109.56 380.84 109.56 535.665h55.928c0-133.183 78.034-255.621 198.779-311.917z" p-id="12571" fill="#333333"></path></svg>