<svg t="1586765185529" class="icon" viewBox="0 0 1146 1024" version="1.1" xmlns="http://www.w3.org/2000/svg" p-id="14472" width="40" height="40"><path d="M40.96 860.16H24.576C8.192 851.968 0 835.584 0 819.2V122.88C0 57.344 57.344 0 122.88 0h737.28c65.536 0 122.88 57.344 122.88 122.88v409.6c0 65.536-57.344 122.88-122.88 122.88H262.144L65.536 851.968s-16.384 8.192-24.576 8.192z m81.92-778.24c-24.576 0-40.96 16.384-40.96 40.96v598.016l131.072-131.072c8.192-8.192 24.576-16.384 32.768-16.384h614.4c24.576 0 40.96-16.384 40.96-40.96v-409.6c0-24.576-16.384-40.96-40.96-40.96H122.88z" p-id="14473" fill="#333333"></path><path d="M1105.92 1024c-8.192 0-24.576-8.192-32.768-16.384L909.312 819.2H401.408c-73.728-8.192-122.88-57.344-114.688-122.88v-40.96h81.92v40.96c0 24.576 16.384 40.96 32.768 40.96h524.288c8.192 0 24.576 8.192 32.768 16.384l106.496 122.88V286.72c0-24.576-16.384-40.96-32.768-40.96H942.08v-81.92h90.112c65.536 8.192 114.688 65.536 114.688 122.88v696.32c0 16.384-8.192 32.768-24.576 40.96h-16.384z" p-id="14474" fill="#333333"></path><path d="M614.4 450.56H204.8c-24.576 0-40.96-16.384-40.96-40.96s16.384-40.96 40.96-40.96h409.6c24.576 0 40.96 16.384 40.96 40.96s-16.384 40.96-40.96 40.96zM450.56 286.72H204.8c-24.576 0-40.96-16.384-40.96-40.96s16.384-40.96 40.96-40.96h245.76c24.576 0 40.96 16.384 40.96 40.96s-16.384 40.96-40.96 40.96z" p-id="14475" fill="#333333"></path></svg>
