<svg t="1586765310675" class="icon" viewBox="0 0 1024 1024" version="1.1" xmlns="http://www.w3.org/2000/svg" p-id="17894" width="40" height="40"><path d="M985.225159 761.422207h-121.414801a365.707233 365.707233 0 0 0-211.378781-279.400326 266.234865 266.234865 0 0 0 109.71217-219.42434A258.189306 258.189306 0 0 0 512 0.019748a235.515458 235.515458 0 0 0-177.733715 77.529934 261.846379 261.846379 0 0 0-73.141447 186.510688 269.160523 269.160523 0 0 0 109.71217 219.42434 372.289963 372.289963 0 0 0-213.573024 292.565786 16.091118 16.091118 0 0 0 0 7.314145v9.508388a37.302138 37.302138 0 0 0 35.839309 38.033552 38.033552 38.033552 0 0 0 35.839309-38.033552A292.565786 292.565786 0 0 1 496.640296 526.638163a146.282893 146.282893 0 0 0 31.450822 0 265.503451 265.503451 0 0 1 179.196544 81.187006 292.565786 292.565786 0 0 1 83.381249 152.865623H493.714638a40.95921 40.95921 0 0 0 0 81.187006h491.510521a40.95921 40.95921 0 0 0 0-81.187006zM512 452.765302a185.779274 185.779274 0 0 1-179.196544-188.704932 185.779274 185.779274 0 0 1 52.661841-133.117432 171.882399 171.882399 0 0 1 252.337991 0 185.779274 185.779274 0 0 1 52.661842 133.117432A184.316445 184.316445 0 0 1 512 452.765302zM985.225159 1024H38.774841a40.95921 40.95921 0 0 1 0-81.187006h946.450318a40.95921 40.95921 0 0 1 0 81.187006z m0 0" p-id="17895" fill="#333333"></path></svg>
